<?xml version="1.0" standalone="no"?>
<!DOCTYPE svg PUBLIC "-//W3C//DTD SVG 20010904//EN"
 "http://www.w3.org/TR/2001/REC-SVG-20010904/DTD/svg10.dtd">
<svg version="1.0" xmlns="http://www.w3.org/2000/svg"
 width="500.000000pt" height="500.000000pt" viewBox="0 0 500.000000 500.000000"
 preserveAspectRatio="xMidYMid meet">

<g transform="translate(0.000000,500.000000) scale(0.100000,-0.100000)"
fill="#000000" stroke="none">
<path d="M2288 4840 c-214 -39 -438 -179 -597 -374 -181 -221 -325 -523 -411
-859 -21 -83 -6 -80 -178 -46 -514 101 -838 315 -881 581 -41 246 171 493 517
602 80 25 105 29 167 24 24 -3 30 1 30 17 0 11 -11 25 -26 32 -22 11 -40 9
-119 -12 -494 -133 -744 -505 -559 -832 122 -214 457 -387 902 -464 61 -11
111 -20 113 -22 1 -1 -4 -40 -12 -87 -40 -247 -38 -492 6 -665 108 -426 462
-516 882 -224 101 71 254 208 352 314 43 47 80 84 82 82 13 -13 -116 -760
-135 -780 -11 -11 -144 17 -229 48 -40 14 -77 23 -82 20 -24 -15 -5 -32 62
-56 l72 -26 -127 -6 c-681 -35 -1174 -297 -1273 -678 -23 -88 -23 -264 0 -343
30 -102 74 -177 146 -247 113 -112 246 -161 430 -162 242 0 478 111 682 321
178 184 294 379 394 662 l33 95 -7 -100 c-14 -194 -7 -621 11 -739 48 -305
131 -508 266 -649 113 -118 227 -167 391 -167 36 0 91 7 121 16 224 66 595
423 989 949 136 183 240 329 240 339 0 3 -16 -2 -35 -11 -21 -10 -51 -41 -77
-77 -221 -317 -511 -669 -714 -866 -154 -149 -260 -231 -361 -277 -76 -35
-203 -38 -273 -6 -174 79 -299 319 -355 683 -35 228 -30 648 12 945 8 61 17
124 19 140 2 17 10 57 17 90 l13 60 87 12 c160 23 197 38 501 202 239 129 304
169 348 213 29 29 101 97 160 151 273 249 479 571 543 847 23 100 23 230 1
301 -91 288 -516 320 -891 66 -80 -54 -252 -222 -330 -322 -175 -224 -317
-488 -447 -830 -27 -71 -47 -119 -44 -105 3 14 20 116 38 227 35 222 34 250
-15 267 -47 17 -76 -4 -179 -125 -122 -145 -319 -336 -425 -412 -100 -71 -248
-149 -328 -172 -90 -27 -209 -25 -266 3 -118 58 -167 224 -156 526 6 163 10
196 48 412 l22 122 196 5 c363 10 607 82 869 256 357 239 532 626 401 883 -47
92 -166 175 -304 213 -71 19 -260 28 -327 15z m373 -62 c173 -64 261 -186 262
-363 1 -166 -73 -321 -232 -489 -162 -169 -363 -285 -621 -356 -159 -44 -412
-70 -542 -56 l-66 7 15 57 c52 204 158 488 241 647 163 309 358 500 577 567
88 27 274 19 366 -14z m1584 -820 c64 -33 108 -80 137 -143 31 -69 31 -217 1
-325 -71 -251 -230 -500 -472 -741 -302 -301 -653 -503 -1029 -594 -40 -9 -75
-15 -79 -12 -16 16 90 395 172 617 243 654 578 1091 928 1206 62 21 88 24 182
21 96 -3 116 -6 160 -29z m-1839 -1910 c-3 -13 -21 -90 -41 -173 -150 -616
-487 -1046 -884 -1130 -280 -59 -527 82 -596 341 -21 78 -21 259 0 338 50 188
217 362 448 465 241 108 592 173 965 179 112 2 112 2 108 -20z"/>
</g>
</svg>
